<svg width="252" height="40" viewBox="0 0 252 40" fill="none" xmlns="http://www.w3.org/2000/svg">
<g filter="url(#filter0_d_11489_515)">
<path fill-rule="evenodd" clip-rule="evenodd" d="M10 12.4502C10.5523 12.4502 11 12.8979 11 13.4502V26.0002H29V13.4502C29 12.8979 29.4477 12.4502 30 12.4502C30.5523 12.4502 31 12.8979 31 13.4502V26.0002C31 26.5306 30.7893 27.0393 30.4142 27.4144C30.0391 27.7895 29.5304 28.0002 29 28.0002H11C10.4696 28.0002 9.96086 27.7895 9.58579 27.4144C9.21071 27.0393 9 26.5306 9 26.0002V13.4502C9 12.8979 9.44772 12.4502 10 12.4502Z" fill="#A259FF"/>
<path fill-rule="evenodd" clip-rule="evenodd" d="M7 5C7 4.44772 7.44772 4 8 4H32C32.5523 4 33 4.44772 33 5C33 5.55228 32.5523 6 32 6H8C7.44772 6 7 5.55228 7 5Z" fill="#A259FF"/>
<path fill-rule="evenodd" clip-rule="evenodd" d="M8 7C8.55228 7 9 7.44772 9 8V10C9 10.7956 9.31607 11.5587 9.87868 12.1213C10.4413 12.6839 11.2044 13 12 13C12.7956 13 13.5587 12.6839 14.1213 12.1213C14.6839 11.5587 15 10.7956 15 10V8C15 7.44772 15.4477 7 16 7C16.5523 7 17 7.44772 17 8V10C17 11.3261 16.4732 12.5979 15.5355 13.5355C14.5979 14.4732 13.3261 15 12 15C10.6739 15 9.40215 14.4732 8.46447 13.5355C7.52678 12.5979 7 11.3261 7 10V8C7 7.44772 7.44772 7 8 7Z" fill="#A259FF"/>
<path fill-rule="evenodd" clip-rule="evenodd" d="M16 7C16.5523 7 17 7.44772 17 8V10C17 10.7956 17.3161 11.5587 17.8787 12.1213C18.4413 12.6839 19.2044 13 20 13C20.7956 13 21.5587 12.6839 22.1213 12.1213C22.6839 11.5587 23 10.7956 23 10V8C23 7.44772 23.4477 7 24 7C24.5523 7 25 7.44772 25 8V10C25 11.3261 24.4732 12.5979 23.5355 13.5355C22.5979 14.4732 21.3261 15 20 15C18.6739 15 17.4021 14.4732 16.4645 13.5355C15.5268 12.5979 15 11.3261 15 10V8C15 7.44772 15.4477 7 16 7Z" fill="#A259FF"/>
<path fill-rule="evenodd" clip-rule="evenodd" d="M24 7C24.5523 7 25 7.44772 25 8V10C25 10.7956 25.3161 11.5587 25.8787 12.1213C26.4413 12.6839 27.2044 13 28 13C28.7956 13 29.5587 12.6839 30.1213 12.1213C30.6839 11.5587 31 10.7956 31 10V8C31 7.44772 31.4477 7 32 7C32.5523 7 33 7.44772 33 8V10C33 11.3261 32.4732 12.5979 31.5355 13.5355C30.5979 14.4732 29.3261 15 28 15C26.6739 15 25.4021 14.4732 24.4645 13.5355C23.5268 12.5979 23 11.3261 23 10V8C23 7.44772 23.4477 7 24 7Z" fill="#A259FF"/>
<path d="M55.48 22.5476H55.876V8.59961H58.78V23.9996H53.104L51.3 10.0516H50.904V23.9996H48V8.59961H53.676L55.48 22.5476Z" fill="white"/>
<path d="M62.0647 8.59961H71.9207V11.3716H64.9687V14.8916H71.7887V17.6636H64.9687V23.9996H62.0647V8.59961Z" fill="white"/>
<path d="M74.7874 8.59961H85.8754V11.3716H81.7834V23.9996H78.8794V11.3716H74.7874V8.59961Z" fill="white"/>
<path d="M101.025 8.59961H106.129L107.009 20.1716V22.4156H107.537V20.1716L108.417 8.59961H113.521V23.9996H110.881V13.7036L111.145 10.1836H110.617L109.473 23.9996H105.117L103.929 10.1836H103.401L103.665 13.7036V23.9996H101.025V8.59961Z" fill="white"/>
<path d="M122.79 22.4156C122.496 23.1049 122.086 23.5963 121.558 23.8896C121.03 24.1683 120.414 24.3076 119.71 24.3076C119.05 24.3076 118.426 24.1829 117.84 23.9336C117.268 23.6843 116.762 23.3176 116.322 22.8336C115.882 22.3496 115.53 21.7629 115.266 21.0736C115.016 20.3843 114.892 19.5996 114.892 18.7196V18.3676C114.892 17.5023 115.016 16.7249 115.266 16.0356C115.515 15.3463 115.852 14.7596 116.278 14.2756C116.703 13.7916 117.194 13.4249 117.752 13.1756C118.324 12.9116 118.932 12.7796 119.578 12.7796C120.355 12.7796 120.978 12.9116 121.448 13.1756C121.932 13.4396 122.313 13.8503 122.592 14.4076H122.988V13.0876H125.76V20.6996C125.76 21.1396 125.958 21.3596 126.354 21.3596H126.772V23.9996H124.88C124.381 23.9996 123.97 23.8529 123.648 23.5596C123.34 23.2663 123.186 22.8849 123.186 22.4156H122.79ZM120.326 21.6676C121.132 21.6676 121.778 21.4036 122.262 20.8756C122.746 20.3329 122.988 19.5996 122.988 18.6756V18.4116C122.988 17.4876 122.746 16.7616 122.262 16.2336C121.778 15.6909 121.132 15.4196 120.326 15.4196C119.519 15.4196 118.874 15.6909 118.39 16.2336C117.906 16.7616 117.664 17.4876 117.664 18.4116V18.6756C117.664 19.5996 117.906 20.3329 118.39 20.8756C118.874 21.4036 119.519 21.6676 120.326 21.6676Z" fill="white"/>
<path d="M128.67 13.0876H133.29V14.6716H133.686C133.892 14.0703 134.236 13.6083 134.72 13.2856C135.219 12.9483 135.813 12.7796 136.502 12.7796C137.588 12.7796 138.46 13.1243 139.12 13.8136C139.78 14.4883 140.11 15.5223 140.11 16.9156V17.3996L137.25 17.6636V17.3556C137.25 16.7543 137.096 16.2776 136.788 15.9256C136.48 15.5589 136.018 15.3756 135.402 15.3756C134.786 15.3756 134.302 15.5883 133.95 16.0136C133.598 16.4389 133.422 17.0476 133.422 17.8396V21.3596H135.93V23.9996H128.406V21.3596H130.65V15.7276H128.67V13.0876Z" fill="white"/>
<path d="M146.321 17.0916H146.849L149.753 13.0876H152.789V13.2196L149.269 18.2136V18.6096L153.141 23.8676V23.9996H149.973L146.849 19.7316H146.321V23.9996H143.549V8.59961H146.321V17.0916Z" fill="white"/>
<path d="M158.582 19.4456C158.596 19.7683 158.67 20.0689 158.802 20.3476C158.948 20.6116 159.139 20.8463 159.374 21.0516C159.623 21.2423 159.902 21.3963 160.21 21.5136C160.532 21.6163 160.87 21.6676 161.222 21.6676C161.911 21.6676 162.439 21.5503 162.806 21.3156C163.172 21.0663 163.436 20.7729 163.598 20.4356L165.974 21.7556C165.842 22.0343 165.658 22.3276 165.424 22.6356C165.189 22.9289 164.881 23.2003 164.5 23.4496C164.133 23.6989 163.678 23.9043 163.136 24.0656C162.608 24.2269 161.984 24.3076 161.266 24.3076C160.444 24.3076 159.696 24.1756 159.022 23.9116C158.347 23.6476 157.76 23.2663 157.262 22.7676C156.778 22.2689 156.396 21.6603 156.118 20.9416C155.854 20.2229 155.722 19.4089 155.722 18.4996V18.3676C155.722 17.5316 155.861 16.7689 156.14 16.0796C156.433 15.3903 156.829 14.8036 157.328 14.3196C157.826 13.8356 158.406 13.4616 159.066 13.1976C159.74 12.9189 160.459 12.7796 161.222 12.7796C162.16 12.7796 162.967 12.9483 163.642 13.2856C164.316 13.6083 164.874 14.0263 165.314 14.5396C165.754 15.0383 166.076 15.5956 166.282 16.2116C166.487 16.8129 166.59 17.3996 166.59 17.9716V19.4456H158.582ZM161.2 15.2876C160.496 15.2876 159.924 15.4709 159.484 15.8376C159.044 16.1896 158.758 16.6003 158.626 17.0696H163.774C163.686 16.5563 163.407 16.1309 162.938 15.7936C162.483 15.4563 161.904 15.2876 161.2 15.2876Z" fill="white"/>
<path d="M169.302 13.0876H172.536V8.59961H175.308V13.0876H179.246V15.7276H175.308V20.6996C175.308 21.1396 175.506 21.3596 175.902 21.3596H178.85V23.9996H174.23C173.732 23.9996 173.321 23.8383 172.998 23.5156C172.69 23.1929 172.536 22.7823 172.536 22.2836V15.7276H169.302V13.0876Z" fill="white"/>
<path d="M185.281 28.3996H182.509V13.0876H185.281V14.6716H185.677C185.97 14.0703 186.396 13.6083 186.953 13.2856C187.51 12.9483 188.222 12.7796 189.087 12.7796C189.732 12.7796 190.341 12.9043 190.913 13.1536C191.5 13.4029 192.006 13.7696 192.431 14.2536C192.871 14.7229 193.216 15.3023 193.465 15.9916C193.729 16.6809 193.861 17.4656 193.861 18.3456V18.7416C193.861 19.6363 193.736 20.4283 193.487 21.1176C193.238 21.8069 192.9 22.3936 192.475 22.8776C192.05 23.3469 191.544 23.7063 190.957 23.9556C190.385 24.1903 189.762 24.3076 189.087 24.3076C188.588 24.3076 188.156 24.2563 187.789 24.1536C187.422 24.0509 187.1 23.9116 186.821 23.7356C186.557 23.5596 186.33 23.3616 186.139 23.1416C185.963 22.9069 185.809 22.6649 185.677 22.4156H185.281V28.3996ZM188.185 21.6676C189.05 21.6676 189.747 21.4036 190.275 20.8756C190.818 20.3329 191.089 19.5996 191.089 18.6756V18.4116C191.089 17.4876 190.818 16.7616 190.275 16.2336C189.747 15.6909 189.05 15.4196 188.185 15.4196C187.32 15.4196 186.616 15.6983 186.073 16.2556C185.545 16.7983 185.281 17.5169 185.281 18.4116V18.6756C185.281 19.5703 185.545 20.2963 186.073 20.8536C186.616 21.3963 187.32 21.6676 188.185 21.6676Z" fill="white"/>
<path d="M196.486 21.3596H200.314V11.2396H196.618V8.59961H203.086V21.3596H206.65V23.9996H196.486V21.3596Z" fill="white"/>
<path d="M217.084 22.4156C216.791 23.1049 216.38 23.5963 215.852 23.8896C215.324 24.1683 214.708 24.3076 214.004 24.3076C213.344 24.3076 212.721 24.1829 212.134 23.9336C211.562 23.6843 211.056 23.3176 210.616 22.8336C210.176 22.3496 209.824 21.7629 209.56 21.0736C209.311 20.3843 209.186 19.5996 209.186 18.7196V18.3676C209.186 17.5023 209.311 16.7249 209.56 16.0356C209.81 15.3463 210.147 14.7596 210.572 14.2756C210.998 13.7916 211.489 13.4249 212.046 13.1756C212.618 12.9116 213.227 12.7796 213.872 12.7796C214.65 12.7796 215.273 12.9116 215.742 13.1756C216.226 13.4396 216.608 13.8503 216.886 14.4076H217.282V13.0876H220.054V20.6996C220.054 21.1396 220.252 21.3596 220.648 21.3596H221.066V23.9996H219.174C218.676 23.9996 218.265 23.8529 217.942 23.5596C217.634 23.2663 217.48 22.8849 217.48 22.4156H217.084ZM214.62 21.6676C215.427 21.6676 216.072 21.4036 216.556 20.8756C217.04 20.3329 217.282 19.5996 217.282 18.6756V18.4116C217.282 17.4876 217.04 16.7616 216.556 16.2336C216.072 15.6909 215.427 15.4196 214.62 15.4196C213.814 15.4196 213.168 15.6909 212.684 16.2336C212.2 16.7616 211.958 17.4876 211.958 18.4116V18.6756C211.958 19.5996 212.2 20.3329 212.684 20.8756C213.168 21.4036 213.814 21.6676 214.62 21.6676Z" fill="white"/>
<path d="M234.141 19.9956C233.892 21.2863 233.298 22.3276 232.359 23.1196C231.435 23.9116 230.196 24.3076 228.641 24.3076C227.834 24.3076 227.079 24.1829 226.375 23.9336C225.686 23.6843 225.084 23.3249 224.571 22.8556C224.058 22.3863 223.654 21.8069 223.361 21.1176C223.068 20.4283 222.921 19.6436 222.921 18.7636V18.4996C222.921 17.6196 223.068 16.8276 223.361 16.1236C223.654 15.4196 224.058 14.8183 224.571 14.3196C225.099 13.8209 225.708 13.4396 226.397 13.1756C227.101 12.9116 227.849 12.7796 228.641 12.7796C230.166 12.7796 231.398 13.1756 232.337 13.9676C233.29 14.7596 233.892 15.8009 234.141 17.0916L231.413 17.7956C231.325 17.1503 231.046 16.5929 230.577 16.1236C230.108 15.6543 229.448 15.4196 228.597 15.4196C228.201 15.4196 227.827 15.4929 227.475 15.6396C227.123 15.7863 226.815 15.9989 226.551 16.2776C226.287 16.5416 226.074 16.8716 225.913 17.2676C225.766 17.6489 225.693 18.0816 225.693 18.5656V18.6976C225.693 19.1816 225.766 19.6143 225.913 19.9956C226.074 20.3623 226.287 20.6703 226.551 20.9196C226.815 21.1689 227.123 21.3596 227.475 21.4916C227.827 21.6089 228.201 21.6676 228.597 21.6676C229.448 21.6676 230.093 21.4549 230.533 21.0296C230.988 20.6043 231.281 20.0323 231.413 19.3136L234.141 19.9956Z" fill="white"/>
<path d="M239.406 19.4456C239.421 19.7683 239.494 20.0689 239.626 20.3476C239.773 20.6116 239.963 20.8463 240.198 21.0516C240.447 21.2423 240.726 21.3963 241.034 21.5136C241.357 21.6163 241.694 21.6676 242.046 21.6676C242.735 21.6676 243.263 21.5503 243.63 21.3156C243.997 21.0663 244.261 20.7729 244.422 20.4356L246.798 21.7556C246.666 22.0343 246.483 22.3276 246.248 22.6356C246.013 22.9289 245.705 23.2003 245.324 23.4496C244.957 23.6989 244.503 23.9043 243.96 24.0656C243.432 24.2269 242.809 24.3076 242.09 24.3076C241.269 24.3076 240.521 24.1756 239.846 23.9116C239.171 23.6476 238.585 23.2663 238.086 22.7676C237.602 22.2689 237.221 21.6603 236.942 20.9416C236.678 20.2229 236.546 19.4089 236.546 18.4996V18.3676C236.546 17.5316 236.685 16.7689 236.964 16.0796C237.257 15.3903 237.653 14.8036 238.152 14.3196C238.651 13.8356 239.23 13.4616 239.89 13.1976C240.565 12.9189 241.283 12.7796 242.046 12.7796C242.985 12.7796 243.791 12.9483 244.466 13.2856C245.141 13.6083 245.698 14.0263 246.138 14.5396C246.578 15.0383 246.901 15.5956 247.106 16.2116C247.311 16.8129 247.414 17.3996 247.414 17.9716V19.4456H239.406ZM242.024 15.2876C241.32 15.2876 240.748 15.4709 240.308 15.8376C239.868 16.1896 239.582 16.6003 239.45 17.0696H244.598C244.51 16.5563 244.231 16.1309 243.762 15.7936C243.307 15.4563 242.728 15.2876 242.024 15.2876Z" fill="white"/>
</g>
<defs>
<filter id="filter0_d_11489_515" x="0" y="0" width="251.414" height="40" filterUnits="userSpaceOnUse" color-interpolation-filters="sRGB">
<feFlood flood-opacity="0" result="BackgroundImageFix"/>
<feColorMatrix in="SourceAlpha" type="matrix" values="0 0 0 0 0 0 0 0 0 0 0 0 0 0 0 0 0 0 127 0" result="hardAlpha"/>
<feOffset dy="4"/>
<feGaussianBlur stdDeviation="2"/>
<feComposite in2="hardAlpha" operator="out"/>
<feColorMatrix type="matrix" values="0 0 0 0 0 0 0 0 0 0 0 0 0 0 0 0 0 0 0.25 0"/>
<feBlend mode="normal" in2="BackgroundImageFix" result="effect1_dropShadow_11489_515"/>
<feBlend mode="normal" in="SourceGraphic" in2="effect1_dropShadow_11489_515" result="shape"/>
</filter>
</defs>
</svg>
